<svg width="0" height="0" class="hidden">
  <symbol fill="none" xmlns="http://www.w3.org/2000/svg" viewBox="0 0 64 100" id="dress">
    <path d="M10.9147 50.5466L0.571289 100H63.4304L53.087 50.5466C52.9149 49.7245 52.6749 48.9112 52.3734 48.1295L47.2985 34.9659L49.058 22.6816L53.5144 23.1146L56.0831 12.0481C56.643 9.63618 56.1784 7.07006 54.8087 5.00761C53.4393 2.94515 51.2546 1.52153 48.8146 1.10138L42.4176 0L41.6801 2.01055C40.1971 6.0522 36.3076 8.76736 32.0007 8.76736C27.6939 8.76736 23.8043 6.0522 22.3214 2.01055L21.5839 0L15.1871 1.10087C12.7471 1.52102 10.5623 2.94464 9.19294 5.00709C7.82329 7.06955 7.35868 9.63592 7.91862 12.0476L10.4873 23.1141L14.9437 22.6811L16.7032 34.9654L11.6285 48.1287C11.3268 48.9112 11.0868 49.7245 10.9147 50.5466ZM14.475 17.5635L12.9252 10.8861C12.6803 9.83096 12.8753 8.75271 13.4746 7.85048C14.0739 6.94826 14.9915 6.35003 16.0592 6.16629L18.3892 5.7649C21.0509 10.7095 26.2805 13.907 32.001 13.907C37.7214 13.907 42.9508 10.7098 45.6128 5.7649L47.9427 6.16629C49.0102 6.35003 49.9281 6.948 50.5273 7.85048C51.1266 8.75297 51.3216 9.83096 51.0768 10.8861L49.527 17.5635L44.6671 17.0914L42.7665 30.3609H21.2362L19.3356 17.0914L14.475 17.5635ZM16.4239 49.9782L20.9155 38.3268H43.0857L47.5776 49.9782C47.7795 50.5024 47.9407 51.0479 48.056 51.5991L57.1045 94.8608H6.89665L15.9451 51.5996C16.0605 51.0479 16.2216 50.5024 16.4239 49.9782Z" fill="#000F08"></path>
  </symbol>
  <symbol fill="none" xmlns="http://www.w3.org/2000/svg" viewBox="0 0 24 24" id="facebok-logo">
    <path d="M20.4844 0H3.51562C1.57727 0 0 1.57727 0 3.51562V20.4844C0 22.4227 1.57727 24 3.51562 24H10.5938V15.5156H7.78125V11.2969H10.5938V8.4375C10.5938 6.11115 12.4861 4.21875 14.8125 4.21875H19.0781V8.4375H14.8125V11.2969H19.0781L18.375 15.5156H14.8125V24H20.4844C22.4227 24 24 22.4227 24 20.4844V3.51562C24 1.57727 22.4227 0 20.4844 0Z" fill="black"></path>
  </symbol>
  <symbol fill="none" xmlns="http://www.w3.org/2000/svg" viewBox="0 0 24 24" id="instagram-logo">
    <path d="M16.5 0H7.5C3.3585 0 0 3.3585 0 7.5V16.5C0 20.6415 3.3585 24 7.5 24H16.5C20.6415 24 24 20.6415 24 16.5V7.5C24 3.3585 20.6415 0 16.5 0ZM21.75 16.5C21.75 19.395 19.395 21.75 16.5 21.75H7.5C4.605 21.75 2.25 19.395 2.25 16.5V7.5C2.25 4.605 4.605 2.25 7.5 2.25H16.5C19.395 2.25 21.75 4.605 21.75 7.5V16.5Z" fill="black"></path>
    <path d="M12 6C8.6865 6 6 8.6865 6 12C6 15.3135 8.6865 18 12 18C15.3135 18 18 15.3135 18 12C18 8.6865 15.3135 6 12 6ZM12 15.75C9.933 15.75 8.25 14.067 8.25 12C8.25 9.9315 9.933 8.25 12 8.25C14.067 8.25 15.75 9.9315 15.75 12C15.75 14.067 14.067 15.75 12 15.75Z" fill="black"></path>
    <path d="M18.4499 6.35024C18.8914 6.35024 19.2494 5.99229 19.2494 5.55073C19.2494 5.10917 18.8914 4.75122 18.4499 4.75122C18.0083 4.75122 17.6504 5.10917 17.6504 5.55073C17.6504 5.99229 18.0083 6.35024 18.4499 6.35024Z" fill="black"></path>
  </symbol>
  <symbol fill="none" xmlns="http://www.w3.org/2000/svg" viewBox="0 0 80 48" id="maestro-logo">
    <path d="M40 32.8889C42.4127 30.7301 43.9365 27.5555 43.9365 24C43.9365 20.4444 42.4127 17.3333 40 15.1111C37.9047 13.2063 35.0476 12 32 12C25.3968 12 20 17.3968 20 24C20 30.6032 25.3968 35.9365 32 35.9365C35.0476 36 37.9047 34.7936 40 32.8889Z" fill="#07A9E2"></path>
    <path d="M20 24C20 30.6032 25.3968 35.9365 32 35.9365C35.1111 35.9365 37.9047 34.7936 40 32.8254C42.4127 30.6666 43.9365 27.492 43.9365 23.9365C43.9365 20.3809 42.4127 17.3333 40 15.1111C37.9047 13.2063 35.0476 12 32 12" fill="#009DDD"></path>
    <path d="M39.9999 15.1111C37.9047 13.2063 35.0475 12 31.9999 12C31.8095 12 31.619 12 31.4285 12C27.6825 14.7302 25.2698 19.1111 25.2698 24C25.2698 28.8889 27.6825 33.2698 31.365 35.9365C31.5555 35.9365 31.746 35.9365 31.9364 35.9365C35.0475 35.9365 37.8412 34.7936 39.9364 32.8254C42.3491 30.6666 43.8729 27.492 43.8729 23.9365C43.8729 20.3809 42.4126 17.3333 39.9999 15.1111Z" fill="#0284CC"></path>
    <path d="M48.0634 12C44.9523 12 42.1586 13.1429 39.9999 15.1111C39.5555 15.4921 39.1745 15.9365 38.7936 16.3809H41.2063C41.5237 16.7619 41.8412 17.2063 42.0952 17.6508H37.8412C37.5872 18.0952 37.3333 18.4762 37.1428 18.9206H42.7936C42.984 19.3651 43.1745 19.746 43.3015 20.1905H36.6983C36.5713 20.6349 36.4444 21.0159 36.3174 21.4603H43.6825C43.8729 22.2857 43.9364 23.1111 43.9364 24C43.9364 25.3333 43.7459 26.6032 43.3015 27.8095H36.6983C36.8253 28.254 37.0158 28.6349 37.2063 29.0793H42.8571C42.6666 29.5238 42.4126 29.9682 42.1586 30.3492H37.9047C38.1587 30.7936 38.4761 31.2381 38.7936 31.619H41.2063C40.8253 32.0635 40.4444 32.5079 39.9999 32.8889C42.1586 34.7936 44.9523 36 48.0634 36C54.6666 36 59.9999 30.6666 59.9999 24.0635C59.9999 17.3968 54.6666 12 48.0634 12Z" fill="#FF2957"></path>
    <path d="M48.0634 12C44.9523 12 42.1586 13.1429 39.9999 15.1111C39.5555 15.4921 39.1745 15.9365 38.7936 16.3809H41.2063C41.5237 16.7619 41.8412 17.2063 42.0952 17.6508H37.8412C37.5872 18.0952 37.3333 18.4762 37.1428 18.9206H42.7936C42.984 19.3651 43.1745 19.746 43.3015 20.1905H36.6983C36.5713 20.6349 36.4444 21.0159 36.3174 21.4603H43.6825C43.8729 22.2857 43.9364 23.1111 43.9364 24C43.9364 25.3333 43.7459 26.6032 43.3015 27.8095H36.6983C36.8253 28.254 37.0158 28.6349 37.2063 29.0793H42.8571C42.6666 29.5238 42.4126 29.9682 42.1586 30.3492H37.9047C38.1587 30.7936 38.4761 31.2381 38.7936 31.619H41.2063C40.8253 32.0635 40.4444 32.5079 39.9999 32.8889C42.1586 34.7936 44.9523 36 48.0634 36C54.6666 36 59.9999 30.6666 59.9999 24.0635" fill="#ED1C2E"></path>
    <path d="M40 32.8888C42.4127 30.7301 43.9365 27.5555 43.9365 24C43.9365 20.4444 42.4127 17.3333 40 15.1111V32.8888Z" fill="#0466B5"></path>
    <path d="M55.8735 26.6031C55.8735 26.4126 56.064 26.2222 56.2545 26.2222C56.445 26.2222 56.6354 26.4126 56.6354 26.6031C56.6354 26.7936 56.445 26.9841 56.2545 26.9841C56.064 26.9841 55.8735 26.7936 55.8735 26.6031ZM56.2545 26.9206C56.445 26.9206 56.5085 26.7936 56.5085 26.6031C56.5085 26.4126 56.3815 26.3492 56.2545 26.3492C56.064 26.3492 55.937 26.4761 55.937 26.6031C55.937 26.7301 56.1275 26.9206 56.2545 26.9206ZM56.2545 26.7301H56.191V26.4126H56.318C56.3815 26.4126 56.3815 26.4126 56.3815 26.4126L56.445 26.4761C56.445 26.5396 56.445 26.5396 56.3815 26.5396L56.445 26.6666H56.3815L56.318 26.5396H56.2545V26.7301ZM56.2545 26.5396C56.318 26.5396 56.318 26.5396 56.318 26.5396C56.318 26.5396 56.318 26.5396 56.318 26.4761H56.2545V26.5396Z" fill="white"></path>
    <path d="M39.9999 15.1112C39.5555 15.4921 39.1745 15.9366 38.7936 16.381H41.2063C41.5237 16.762 41.8412 17.2064 42.0952 17.6509H37.8412C37.5872 18.0953 37.3333 18.4763 37.1428 18.9207H42.7936C42.984 19.3651 43.1745 19.7461 43.3015 20.1905H36.6983C36.5713 20.635 36.4444 21.0159 36.3174 21.4604H43.6825C43.8729 22.2858 43.9364 23.1112 43.9364 24.0001C43.9364 25.3334 43.7459 26.6032 43.3015 27.8096H36.6983C36.8253 28.254 37.0158 28.635 37.2063 29.0794H42.8571C42.6666 29.5239 42.4126 29.9683 42.1586 30.3493H37.9047C38.1587 30.7937 38.4761 31.2381 38.7936 31.6191H41.2063C40.8253 32.0635 40.4444 32.508 39.9999 32.8889C42.1586 34.7937 44.9523 36 48.0634 36C48.2539 36 48.4444 36 48.6348 36C52.3174 33.3334 54.7301 28.9524 54.7301 24.0636C54.7301 19.1747 52.3174 14.7937 48.6348 12.1271C48.4444 12.1271 48.2539 12.1271 48.0634 12.1271C44.9523 12.0001 42.1586 13.2064 39.9999 15.1112Z" fill="#D1094B"></path>
    <path d="M30.4764 26.9841H28.9526L29.8415 22.3492L27.8098 26.9841H26.4764L26.2225 22.3492L25.3336 26.9841H24.0002L25.1431 20.8889H27.4923L27.6193 24.6984L29.2701 20.8889H31.6828L30.4764 26.9841Z" fill="white"></path>
    <path d="M29.0149 24.3175L29.9038 22.3492L29.2054 26.0318C29.2689 26.3492 29.3324 26.7302 29.4594 27.0476H30.4752L31.6181 20.9524H29.3959C29.1419 21.9048 28.9514 22.9841 28.9514 24.0635C29.0149 24.127 29.0149 24.1905 29.0149 24.3175Z" fill="#DCE5E5"></path>
    <path d="M47.1114 26.9206C46.6669 27.0476 46.413 27.1111 46.032 27.1111C45.2701 27.1111 44.8892 26.7302 44.8892 26.0318C44.8892 25.9048 44.8892 25.7778 44.9527 25.5873L45.0161 25.0794L45.0796 24.6984L45.778 20.9524H47.2384L47.0479 22.0952H47.8098L47.6193 23.2381H46.8574L46.4765 25.2698C46.4765 25.3333 46.413 25.4603 46.413 25.4603C46.413 25.7143 46.6034 25.8413 46.9209 25.8413C47.1114 25.8413 47.2384 25.8413 47.3019 25.7778L47.1114 26.9206Z" fill="#DCE5E5"></path>
    <path d="M51.4929 22.095C51.3659 22.0315 51.3659 22.0315 51.3024 22.0315C51.2389 22.0315 51.1754 22.0315 51.1754 21.968C51.1119 21.968 51.1119 21.968 50.9849 21.968C50.477 21.968 50.1596 22.1585 49.7151 22.7934L49.8421 22.0315H48.5088L47.6199 26.9839H49.1437C49.6516 23.9363 49.9056 23.4283 50.604 23.4283C50.6675 23.4283 50.731 23.4283 50.7945 23.4283L50.9849 23.4918L51.4929 22.095Z" fill="#DCE5E5"></path>
    <path d="M41.2064 23.6188C41.2064 24.2537 41.5874 24.6982 42.3493 24.9521C42.9842 25.2061 43.0477 25.2696 43.0477 25.5236C43.0477 25.841 42.7937 25.968 42.1588 25.968C41.7144 25.968 41.2699 25.9045 40.8255 25.7775L40.635 26.9204H40.6985L40.9525 26.9839C41.016 26.9839 41.2064 26.9839 41.3334 26.9839C41.7144 27.0474 41.9683 27.0474 42.1588 27.0474C43.7461 27.0474 44.508 26.5394 44.508 25.3966C44.508 24.6982 44.1906 24.3172 43.4287 23.9998C42.7937 23.7458 42.7302 23.6823 42.7302 23.4918C42.7302 23.2379 42.9842 23.1109 43.4921 23.1109C43.7461 23.1109 44.1906 23.1109 44.5715 23.1744L44.762 22.0315C44.381 21.968 43.8096 21.968 43.4287 21.968C41.7779 21.968 41.2064 22.7299 41.2064 23.6188Z" fill="#DCE5E5"></path>
    <path d="M35.3025 26.9839H34.0962V26.476C33.7152 26.8569 33.2073 27.0474 32.5089 27.0474C31.6835 27.0474 31.1755 26.476 31.1755 25.7141C31.1755 24.5077 32.1279 23.8093 33.7787 23.8093C33.9692 23.8093 34.1597 23.8093 34.4136 23.8093C34.4771 23.6188 34.4771 23.5553 34.4771 23.4918C34.4771 23.1744 34.2232 23.0474 33.5247 23.0474C33.0803 23.0474 32.6359 23.1109 32.3184 23.1744L32.1279 23.2379H32.0009L32.1914 22.1585C32.9533 21.968 33.3978 21.9045 33.9692 21.9045C35.239 21.9045 35.9374 22.4125 35.9374 23.3649C35.9374 23.6188 35.9374 23.8093 35.8105 24.3807L35.493 26.1585L35.4295 26.476L35.366 26.7299V26.9204L35.3025 26.9839ZM34.2232 24.7617C34.0327 24.7617 33.9692 24.7617 33.9057 24.7617C33.0803 24.7617 32.6359 25.0156 32.6359 25.5236C32.6359 25.841 32.8263 26.0315 33.1438 26.0315C33.7787 26.0315 34.2232 25.5236 34.2232 24.7617Z" fill="#DCE5E5"></path>
    <path d="M40.1912 26.8569C39.6832 26.9839 39.1753 27.0474 38.6674 27.0474C37.0166 27.0474 36.1277 26.2855 36.1277 24.8252C36.1277 23.1109 37.207 21.9045 38.7309 21.9045C39.9372 21.9045 40.6991 22.603 40.6991 23.6823C40.6991 24.0633 40.6356 24.3807 40.5086 24.8887H37.5245C37.5245 24.9522 37.5245 25.0156 37.5245 25.0791C37.5245 25.6506 37.969 25.968 38.7943 25.968C39.3658 25.968 39.8102 25.9045 40.3182 25.6506L40.1912 26.8569ZM39.4293 23.9363C39.4293 23.8728 39.4293 23.7458 39.4293 23.6823C39.4293 23.3014 39.1753 23.0474 38.7309 23.0474C38.2864 23.0474 37.9055 23.3649 37.7785 23.9363H39.4293Z" fill="#DCE5E5"></path>
    <path d="M56.1265 24.7619C55.8726 26.4127 54.7297 27.1111 53.2059 27.1111C51.5551 27.1111 50.8567 26.0953 50.8567 24.8254C50.8567 23.1111 51.9995 21.9048 53.7773 21.9048C55.3011 21.9048 56.1265 22.9207 56.1265 24.127C56.1265 24.4445 56.1265 24.4445 56.1265 24.7619ZM54.5392 24.127C54.5392 23.6191 54.3487 23.1746 53.7138 23.1746C52.9519 23.1746 52.5075 24.0635 52.5075 24.8889C52.5075 25.5238 52.8249 25.9683 53.3329 25.9683C53.6503 25.9683 54.3487 25.5238 54.4757 24.7619C54.5392 24.508 54.5392 24.3175 54.5392 24.127Z" fill="white"></path>
    <path d="M50.9214 25.3969C50.9849 24.9524 51.0484 24.4445 51.0484 24C51.0484 23.9365 51.0484 23.873 51.0484 23.873C50.9849 24.1905 50.9214 24.508 50.9214 24.8889C50.8579 25.0159 50.8579 25.2064 50.9214 25.3969Z" fill="white"></path>
    <rect x="0.5" y="0.5" width="79" height="47" rx="7.5" stroke="#D8D8D8"></rect>
  </symbol>
  <symbol fill="none" xmlns="http://www.w3.org/2000/svg" viewBox="0 0 24 25" id="main-search">
    <path d="M23.7061 22.5569L17.9363 16.7671C19.3665 15.0174 20.2286 12.7762 20.2286 10.3335C20.2286 4.73041 15.698 0.184082 10.1143 0.184082C4.52571 0.184082 0 4.73041 0 10.3335C0 15.9365 4.52571 20.4828 10.1143 20.4828C12.5486 20.4828 14.7771 19.6227 16.5208 18.1876L22.2906 23.9725C22.6824 24.3656 23.3143 24.3656 23.7061 23.9725C24.098 23.5842 24.098 22.9452 23.7061 22.5569ZM10.1143 18.4628C5.64245 18.4628 2.00816 14.8159 2.00816 10.3335C2.00816 5.85102 5.64245 2.19921 10.1143 2.19921C14.5812 2.19921 18.2204 5.85102 18.2204 10.3335C18.2204 14.8159 14.5812 18.4628 10.1143 18.4628Z" fill="white"></path>
  </symbol>
  <symbol fill="none" xmlns="http://www.w3.org/2000/svg" viewBox="0 0 24 24" id="odnoklassniki-logo">
    <path d="M22.7234 0H1.2766C0.57166 0 0 0.571404 0 1.2766V22.7234C0 23.4286 0.57166 24 1.2766 24H22.7234C23.4286 24 24 23.4286 24 22.7234V1.2766C24 0.571404 23.4286 0 22.7234 0ZM12.0204 2.23813C14.7521 2.24502 16.9453 4.48008 16.9317 7.24289C16.9172 9.94162 14.6883 12.1292 11.9609 12.12C9.26068 12.1108 7.04655 9.87243 7.06187 7.16783C7.07796 4.43362 9.29362 2.22996 12.0204 2.23813ZM17.554 14.0609C16.9499 14.6816 16.2227 15.13 15.4149 15.4437C14.6512 15.7389 13.8146 15.8885 12.9863 15.9876C13.1114 16.1239 13.1704 16.19 13.248 16.2689C14.3724 17.3987 15.5014 18.5239 16.622 19.657C17.0035 20.0428 17.0842 20.5215 16.8735 20.9706C16.6435 21.4621 16.129 21.7846 15.624 21.7499C15.3043 21.7274 15.0551 21.5683 14.834 21.346C13.9854 20.4919 13.1206 19.654 12.2898 18.7849C12.048 18.5316 11.9316 18.5788 11.7176 18.7991C10.8641 19.678 9.99728 20.5432 9.12485 21.4034C8.73294 21.79 8.26698 21.8591 7.81174 21.6388C7.32868 21.4047 7.02179 20.9117 7.04553 20.4156C7.06187 20.0806 7.22681 19.8248 7.45685 19.595C8.56902 18.4841 9.67864 17.3704 10.7888 16.2574C10.8626 16.1839 10.931 16.105 11.038 15.9906C9.52417 15.8326 8.15923 15.4603 6.99115 14.5463C6.84638 14.4327 6.69651 14.3229 6.56374 14.1957C6.0526 13.7045 6.00128 13.1426 6.40596 12.5627C6.75166 12.0669 7.33328 11.9336 7.93711 12.2183C8.0543 12.2732 8.16562 12.3424 8.27234 12.4162C10.4497 13.9123 13.4413 13.954 15.6271 12.4841C15.8433 12.3189 16.0749 12.182 16.3435 12.1141C16.8656 11.9801 17.3512 12.1713 17.6316 12.6278C17.9525 13.1479 17.9482 13.6565 17.554 14.0609Z" fill="black"></path>
  </symbol>
  <symbol fill="none" xmlns="http://www.w3.org/2000/svg" viewBox="0 0 24 24" id="remove-icon">
    <path d="M10.8518 12.0037L0.228844 22.7013C-0.0662813 22.9985 -0.0662813 23.48 0.228844 23.7772C0.376219 23.926 0.569719 24 0.762844 24C0.956344 24 1.14947 23.926 1.29684 23.7772L11.9997 12.9991L22.7026 23.7772C22.8503 23.926 23.0435 24 23.2366 24C23.4297 24 23.6232 23.926 23.7706 23.7772C24.0657 23.48 24.0657 22.9985 23.7706 22.7013L13.148 12.0037L23.7777 1.2985C24.0728 1.0013 24.0728 0.519814 23.7777 0.222616C23.4826 -0.0742052 23.0045 -0.0742052 22.7097 0.222616L12.0001 11.0082L1.28934 0.222993C0.994219 -0.0738276 0.516469 -0.0738276 0.221344 0.222993C-0.0737813 0.520192 -0.0737813 1.00168 0.221344 1.29887L10.8518 12.0037Z" fill="#1D1D1B"></path>
  </symbol>
  <symbol fill="none" xmlns="http://www.w3.org/2000/svg" viewBox="0 0 58 100" id="swimwear">
    <path d="M53.6624 59.7257C51.7628 55.5859 49.662 51.9446 48.5788 50.1431C50.0378 47.036 53.7925 38.9793 55.0052 35.7915C57.2574 29.8719 53.3596 14.8621 52.5553 11.9132L51.7641 9.01239L51.6353 9.07376V0H46.6052V11.4661L33.4757 17.7104C30.6164 19.0705 27.3365 19.0703 24.4772 17.7104L11.3944 11.4882V0H6.36434V9.09589L6.18879 9.01239L5.39756 11.9132C4.59325 14.8621 0.695186 29.8719 2.9474 35.7913C4.16066 38.9806 7.91838 47.0431 9.37585 50.1471C8.30193 51.9446 6.21922 55.5771 4.33244 59.7111C0.518378 68.0673 -0.471039 73.9399 1.30709 77.6652C3.41721 82.0851 11.9736 86.1351 14.8428 87.3923C16.2998 89.2479 21.4151 95.7913 23.5644 98.9117L24.3139 100H33.5394L34.2856 98.8755C36.4181 95.6613 41.6297 88.9318 43.1393 86.9932C46.0471 85.8074 54.5047 82.0514 56.6536 77.6944C58.485 73.9812 57.5067 68.1035 53.6624 59.7257ZM29 24.8496C31.7735 24.8496 34.03 27.1061 34.03 29.8797C34.03 32.6533 31.7735 34.9098 29 34.9098C26.2264 34.9098 23.9699 32.6533 23.9699 29.8797C23.9699 27.1061 26.2264 24.8496 29 24.8496ZM52.1426 75.4693C51.0538 77.677 44.6475 81.0097 40.6617 82.5667L40.0201 82.817L39.5956 83.359C39.3395 83.6857 33.8067 90.7542 30.8626 94.9702H26.9401C24.025 90.9111 18.648 84.0926 18.3996 83.7772L17.9982 83.2692L17.4026 83.0177C13.379 81.319 6.92419 77.7545 5.84725 75.4982C3.90463 71.4286 9.65351 59.0984 14.3559 51.6433L15.0938 50.4746L14.5028 49.2251C14.4484 49.1104 9.06524 37.7233 7.64978 34.0028C6.53712 31.0786 7.99937 22.4744 9.50713 16.1601L22.3177 22.2528C22.3469 22.2667 22.3771 22.2782 22.4063 22.2921C20.2853 24.1378 18.9405 26.8538 18.9405 29.8797C18.9405 35.4268 23.4535 39.9398 29.0007 39.9398C34.5479 39.9398 39.0609 35.4268 39.0609 29.8797C39.0609 26.8463 37.7095 24.1243 35.5793 22.2782C35.5984 22.2692 35.6178 22.2619 35.6369 22.2528L48.4475 16.1601C49.9553 22.4741 51.4175 31.0783 50.3046 34.0028C48.8894 37.7231 43.506 49.1104 43.4516 49.2251L42.8586 50.4789L43.6025 51.6496C43.632 51.6961 46.5849 56.3608 49.0914 61.8234C53.3458 71.0972 52.6423 74.4557 52.1426 75.4693Z" fill="#000F08"></path>
  </symbol>
  <symbol fill="none" xmlns="http://www.w3.org/2000/svg" viewBox="0 0 100 92" id="tees">
    <path d="M99.1628 34.8319L90.911 13.5194C89.504 9.88474 86.4218 7.09276 82.6661 6.05016L60.8719 0.000310221V12.2766C60.8719 18.2715 55.9947 23.1487 49.9998 23.1487C44.0049 23.1487 39.1277 18.2715 39.1277 12.2766V0L17.3335 6.05016C13.5778 7.09276 10.4959 9.88474 9.08859 13.5194L0.837135 34.8316C-0.640331 38.6469 -0.141531 42.9396 2.17058 46.3148C4.483 49.69 8.30641 51.7051 12.3977 51.7051H18.7405L14.7191 91.0432H85.4571L81.3208 51.7054H87.6022C91.6938 51.7054 95.5169 49.6903 97.8293 46.3151C100.142 42.9396 100.64 38.6469 99.1628 34.8319ZM92.7082 42.8065C91.5365 44.5167 89.6753 45.4976 87.6022 45.4976H81.679L80.2518 27.948H72.5805L78.5621 84.8354H21.5937L27.4092 27.948H19.7208L18.4599 45.4976H12.3977C10.3246 45.4976 8.46346 44.5167 7.29174 42.8065C6.12032 41.0962 5.87728 39.0066 6.62594 37.0732L14.8777 15.7608C15.5804 13.9462 17.1194 12.5522 18.9941 12.0317L32.9199 8.1661V12.2763C32.9199 21.6942 40.5822 29.3562 49.9998 29.3562C59.4174 29.3562 67.0797 21.6939 67.0797 12.2763V8.1661L81.0055 12.0317C82.8802 12.5522 84.4192 13.9462 85.1219 15.7608L93.3737 37.0735C94.1226 39.0063 93.8799 41.0962 92.7082 42.8065Z" fill="#000F08"></path>
  </symbol>
  <symbol fill="none" xmlns="http://www.w3.org/2000/svg" viewBox="0 0 72 100" id="tops">
    <path d="M71.1376 90.2739C66.3283 78.0976 56.707 62.9796 54.9761 60.3001L57.5026 41.543C61.8438 36.8323 60.8909 29.7708 60.4952 27.7106L62.7949 24.091C62.8885 23.9432 62.9522 23.7788 62.9818 23.6067L65.9831 6.20047C66.1004 5.51927 65.6733 4.8624 65.0029 4.69401C59.0696 3.20289 52.9431 0.169369 52.882 0.138971C52.2323 -0.184577 51.4427 0.0763229 51.1141 0.723947C47.7838 7.28583 36.1575 7.01885 36.0401 7.01436C36.025 7.01383 36.011 7.01753 35.996 7.01753C35.9835 7.01726 35.9719 7.01409 35.9595 7.01436C35.8426 7.01753 24.2158 7.28583 20.8854 0.723947C20.5569 0.0763229 19.767 -0.184841 19.1176 0.138971C19.0565 0.169369 12.9392 3.20078 6.99695 4.69401C6.32659 4.86266 5.89916 5.51927 6.01653 6.20047L9.01754 23.6067C9.04714 23.7788 9.11085 23.9432 9.20442 24.091L11.5102 27.7201C11.1441 29.7766 10.2557 36.9219 14.497 41.5422L17.0235 60.3001C15.2929 62.9799 5.67157 78.0978 0.861971 90.2739C0.705219 90.6707 0.749628 91.1188 0.981451 91.4772C1.27169 91.926 3.85109 95.4919 12.4822 95.4919C12.8911 95.4919 13.3164 95.4822 13.7534 95.4652C13.6096 96.0521 13.4682 96.6204 13.3297 97.1657C13.1586 97.8392 13.5385 98.5302 14.1991 98.7467C14.4293 98.8223 18.0954 99.9997 22.4664 99.9997C24.7524 99.9994 27.2319 99.6772 29.5123 98.7068C30.0066 98.4964 30.3204 98.0084 30.3138 97.4745H41.6858C41.6792 98.0087 41.993 98.4964 42.4873 98.7068C44.768 99.6775 47.2469 99.9997 49.5332 99.9997C53.9037 99.9997 57.57 98.8223 57.8005 98.7467C58.4611 98.5302 58.841 97.839 58.6699 97.1657C58.5317 96.6207 58.39 96.0526 58.2462 95.4658C58.6834 95.483 59.1082 95.4919 59.5177 95.4919C68.1475 95.4917 70.7282 91.9263 71.0184 91.4772C71.25 91.1188 71.2944 90.6707 71.1376 90.2739ZM16.6841 40.0048C13.5636 36.8844 13.677 31.7811 13.9635 29.2609L15.553 29.8527C15.705 29.9093 15.8609 29.936 16.0143 29.936C16.5503 29.936 17.0549 29.6074 17.2529 29.0753C17.5078 28.3912 17.1596 27.6302 16.4758 27.3754L13.7872 26.3741L11.5774 22.8965L8.82695 6.94193C13.1486 5.72995 17.2677 3.92532 19.1842 3.03583C23.7569 9.82795 35.1009 9.68098 36.0013 9.65719C36.9172 9.68019 48.2469 9.82267 52.8159 3.03583C54.7324 3.92532 58.8515 5.72995 63.1734 6.94193L60.4222 22.8965L58.2126 26.3741L55.5243 27.3754C54.8402 27.6302 54.4924 28.3912 54.7472 29.0753C54.9454 29.6074 55.4498 29.936 55.9859 29.936C56.1392 29.936 56.2951 29.9091 56.4471 29.8527L58.0606 29.2516C58.377 31.733 58.5349 36.786 55.316 40.0051C55.1114 40.2097 54.9795 40.4762 54.9409 40.7632L52.4459 59.2874H51.3917V44.8409C51.3917 44.1108 50.7999 43.5192 50.07 43.5192C49.3402 43.5192 48.7483 44.1108 48.7483 44.8409V59.2874H36.0002H23.2518V44.8409C23.2518 44.1108 22.6599 43.5192 21.9301 43.5192C21.2003 43.5192 20.6084 44.1108 20.6084 44.8409V59.2874H19.5545L17.0594 40.7632C17.0206 40.4759 16.8887 40.2094 16.6841 40.0048ZM3.63169 90.4698C8.33767 78.9244 17.1689 64.9579 19.1173 61.9305H20.6082V63.5599C20.2941 65.1514 17.0941 81.3122 14.3957 92.7865C7.65092 93.1914 4.66075 91.3538 3.63169 90.4698ZM44.3685 96.5958L45.5393 70.6961C45.5723 69.9668 45.0077 69.3491 44.2784 69.316C43.5499 69.2838 42.9314 69.8476 42.8983 70.5769L41.8018 94.8314H30.1978L29.1013 70.5769C29.0682 69.8479 28.4478 69.287 27.7212 69.316C26.9919 69.3491 26.4275 69.9668 26.4603 70.6961L27.631 96.5956C23.4149 98.0108 18.4369 97.1028 16.2064 96.5583C19.1607 84.6053 23.1846 64.1562 23.2264 63.9437C23.2431 63.8599 23.2513 63.7742 23.2513 63.6889V61.9305H35.9997H48.7478V63.6889C48.7478 63.7742 48.756 63.8596 48.7727 63.9437C48.8144 64.1565 52.8389 84.6074 55.7932 96.5599C53.5653 97.1068 48.595 98.0169 44.3685 96.5958ZM57.6039 92.7867C54.9055 81.3127 51.7055 65.1512 51.3914 63.5601V61.9308H52.8826C54.831 64.9582 63.6622 78.9247 68.3682 90.4701C67.3394 91.3535 64.3492 93.1914 57.6039 92.7867Z" fill="#000F08"></path>
  </symbol>
  <symbol fill="none" xmlns="http://www.w3.org/2000/svg" viewBox="0 0 14 14" id="Union">
    <path fill-rule="evenodd" clip-rule="evenodd" d="M6 8V14H8V8H14V6H8V0H6V6H0V8H6Z" fill="#000F08"></path>
  </symbol>
  <symbol fill="none" xmlns="http://www.w3.org/2000/svg" viewBox="0 0 80 48" id="visa-logo">
    <path d="M33.3511 31.5812L36.0317 16.5027H40.2202L37.6233 31.5812H33.3511Z" fill="#3C58BF"></path>
    <path d="M33.3511 31.5812L36.7856 16.5027H40.2202L37.6233 31.5812H33.3511Z" fill="#293688"></path>
    <path d="M52.7855 16.6702C51.9478 16.3351 50.6075 16 48.9321 16C44.7436 16 41.7279 18.0942 41.7279 21.11C41.7279 23.3717 43.8222 24.5445 45.4976 25.2984C47.173 26.0524 47.6756 26.555 47.6756 27.2251C47.6756 28.2304 46.3353 28.733 45.1625 28.733C43.4871 28.733 42.5656 28.4817 41.1415 27.8953L40.5551 27.644L39.9688 31.0786C40.974 31.4974 42.8169 31.9163 44.7436 31.9163C49.1834 31.9163 52.1154 29.822 52.1154 26.6388C52.1154 24.8796 51.0264 23.5393 48.5133 22.4503C47.0054 21.6963 46.0839 21.2775 46.0839 20.5236C46.0839 19.8534 46.8379 19.1833 48.5133 19.1833C49.9374 19.1833 50.9426 19.4346 51.6965 19.7696L52.1154 19.9372L52.7855 16.6702Z" fill="#3C58BF"></path>
    <path d="M52.7855 16.6702C51.9478 16.3351 50.6075 16 48.9321 16C44.7436 16 42.4818 18.0942 42.4818 21.11C42.4818 23.3717 43.8222 24.5445 45.4976 25.2984C47.173 26.0524 47.6756 26.555 47.6756 27.2251C47.6756 28.2304 46.3353 28.733 45.1625 28.733C43.4871 28.733 42.5656 28.4817 41.1415 27.8953L40.5551 27.644L39.9688 31.0786C40.974 31.4974 42.8169 31.9163 44.7436 31.9163C49.1834 31.9163 52.1154 29.822 52.1154 26.6388C52.1154 24.8796 51.0264 23.5393 48.5133 22.4503C47.0054 21.6963 46.0839 21.2775 46.0839 20.5236C46.0839 19.8534 46.8379 19.1833 48.5133 19.1833C49.9374 19.1833 50.9426 19.4346 51.6965 19.7696L52.1154 19.9372L52.7855 16.6702Z" fill="#293688"></path>
    <path d="M59.9886 16.5027C58.9833 16.5027 58.2294 16.5865 57.8106 17.5917L51.5278 31.5812H56.0514L56.8891 29.0682H62.2504L62.753 31.5812H66.7739L63.2556 16.5027H59.9886ZM58.0619 26.5551C58.3132 25.8011 59.7373 22.1153 59.7373 22.1153C59.7373 22.1153 60.0723 21.1938 60.3237 20.6074L60.575 22.0315C60.575 22.0315 61.4127 25.8011 61.5802 26.6388H58.0619V26.5551Z" fill="#3C58BF"></path>
    <path d="M60.9938 16.5027C59.9886 16.5027 59.2347 16.5865 58.8158 17.5917L51.5278 31.5812H56.0514L56.8891 29.0682H62.2504L62.753 31.5812H66.7739L63.2556 16.5027H60.9938ZM58.0619 26.5551C58.397 25.7174 59.7373 22.1153 59.7373 22.1153C59.7373 22.1153 60.0723 21.1938 60.3237 20.6074L60.575 22.0315C60.575 22.0315 61.4127 25.8011 61.5802 26.6388H58.0619V26.5551Z" fill="#293688"></path>
    <path d="M25.6438 27.0576L25.225 24.8796C24.471 22.3665 22.0417 19.6021 19.3611 18.2618L23.1307 31.665H27.6543L34.4396 16.5864H29.9161L25.6438 27.0576Z" fill="#3C58BF"></path>
    <path d="M25.6438 27.0576L25.225 24.8796C24.471 22.3665 22.0417 19.6021 19.3611 18.2618L23.1307 31.665H27.6543L34.4396 16.5864H30.7538L25.6438 27.0576Z" fill="#293688"></path>
    <path d="M14 16.5027L14.7539 16.6702C20.1152 17.9268 23.8011 21.11 25.2252 24.8797L23.7173 17.7592C23.466 16.754 22.7121 16.5027 21.7906 16.5027H14Z" fill="#FFBC00"></path>
    <path d="M14 16.5027C19.3613 17.7592 23.8011 21.0263 25.2252 24.7959L23.8011 18.8482C23.5498 17.843 22.7121 17.2566 21.7906 17.2566L14 16.5027Z" fill="#F7981D"></path>
    <path d="M14 16.5027C19.3613 17.7592 23.8011 21.0263 25.2252 24.7959L24.2199 21.5289C23.9686 20.5236 23.6335 19.5184 22.4607 19.0995L14 16.5027Z" fill="#ED7C00"></path>
    <path d="M29.8323 26.555L26.9841 23.7068L25.6438 26.89L25.3087 24.7958C24.5548 22.2827 22.1255 19.5183 19.4448 18.178L23.2145 31.5811H27.738L29.8323 26.555Z" fill="#051244"></path>
    <path d="M37.6228 31.5811L34.0207 27.8953L33.3506 31.5811H37.6228Z" fill="#051244"></path>
    <path d="M47.2562 26.3875C47.5913 26.7225 47.7589 26.9738 47.6751 27.3089C47.6751 28.3142 46.3348 28.8168 45.162 28.8168C43.4866 28.8168 42.5651 28.5655 41.141 27.9791L40.5547 27.7278L39.9683 31.1623C40.9735 31.5812 42.8164 32 44.7431 32C47.4238 32 49.6018 31.2461 50.8583 29.9058L47.2562 26.3875Z" fill="#051244"></path>
    <path d="M52.1145 31.5813H56.0517L56.8894 29.0682H62.2506L62.7533 31.5813H66.7742L65.3501 25.4661L60.3239 20.6074L60.5752 21.9477C60.5752 21.9477 61.4129 25.7174 61.5805 26.5551H58.0622C58.3972 25.7174 59.7376 22.1153 59.7376 22.1153C59.7376 22.1153 60.0726 21.1938 60.3239 20.6074" fill="#051244"></path>
    <rect x="0.5" y="0.5" width="79" height="47" rx="7.5" stroke="#D8D8D8"></rect>
  </symbol>
  <symbol fill="none" xmlns="http://www.w3.org/2000/svg" viewBox="0 0 28 25" id="wishlist-icon">
    <path d="M25.0938 2.41993C23.6644 0.985503 21.7719 0.201504 19.7521 0.201504C17.7324 0.201504 15.8341 0.99131 14.4047 2.42574L13.6581 3.17489L12.9 2.41412C11.4705 0.979695 9.56646 0.184082 7.54669 0.184082C5.5327 0.184082 3.63447 0.973888 2.21079 2.40251C0.781319 3.83693 -0.00575563 5.74176 3.16897e-05 7.76854C3.16897e-05 9.79532 0.792894 11.6943 2.22236 13.1288L13.0909 24.0351C13.2414 24.186 13.444 24.2673 13.6407 24.2673C13.8375 24.2673 14.0401 24.1919 14.1905 24.0409L25.0823 13.152C26.5117 11.7176 27.2988 9.81274 27.2988 7.78596C27.3046 5.75918 26.5233 3.85436 25.0938 2.41993ZM23.9827 12.0428L13.6407 22.3799L3.32195 12.0254C2.18764 10.8871 1.56261 9.37719 1.56261 7.76854C1.56261 6.15989 2.18185 4.64997 3.31616 3.51753C4.44469 2.38508 5.94939 1.75789 7.54669 1.75789C9.14978 1.75789 10.6603 2.38508 11.7946 3.52333L13.1025 4.83581C13.4092 5.1436 13.9012 5.1436 14.2079 4.83581L15.5042 3.53495C16.6386 2.3967 18.1491 1.7695 19.7463 1.7695C21.3436 1.7695 22.8484 2.3967 23.9827 3.52914C25.117 4.66739 25.7362 6.17731 25.7362 7.78596C25.742 9.39461 25.117 10.9045 23.9827 12.0428Z" fill="white"></path>
  </symbol>
  <symbol fill="none" xmlns="http://www.w3.org/2000/svg" viewBox="0 0 13 25" id="arrow">
    <path d="M12.4822 11.5516L1.16058 0.200447C0.894011 -0.0668158 0.466495 -0.0668158 0.199927 0.200447C-0.0666422 0.46771 -0.0666422 0.89634 0.199927 1.1636L11.0387 12.0306L0.199927 22.8976C-0.0666422 23.1649 -0.0666422 23.5935 0.199927 23.8608C0.330696 23.9919 0.506732 24.0625 0.677738 24.0625C0.848745 24.0625 1.02478 23.9969 1.15555 23.8608L12.4772 12.5097C12.7437 12.2475 12.7437 11.8138 12.4822 11.5516Z" fill="#000F08"></path>
  </symbol>
  <symbol fill="none" xmlns="http://www.w3.org/2000/svg" viewBox="0 0 62 56" id="add-to-wishlist">
    <path d="M43.7409 0C40.8623 0 38.1109 0.659911 35.5635 1.96153C33.8295 2.84739 32.2365 4.02439 30.8697 5.42084C29.5027 4.02439 27.9099 2.84739 26.1758 1.96153C23.6283 0.659911 20.8771 0 17.9984 0C8.07411 0 0 8.07411 0 17.9985C0 25.0277 3.71238 32.4934 11.0339 40.1882C17.147 46.6131 24.6313 51.9687 29.8333 55.3303L30.8697 56L31.906 55.3303C37.108 51.9689 44.5923 46.6131 50.7056 40.1882C58.0271 32.4934 61.7393 25.0277 61.7393 17.9985C61.7393 8.07411 53.6652 0 43.7409 0ZM47.9389 37.5557C42.4755 43.2976 35.8207 48.179 30.8697 51.4459C25.9187 48.1788 19.2638 43.2976 13.8006 37.5557C7.17717 30.5948 3.81893 24.0148 3.81893 17.9985C3.81893 10.1799 10.1799 3.81893 17.9985 3.81893C22.4999 3.81893 26.6349 5.88662 29.343 9.49169L30.8697 11.524L32.3963 9.49169C35.1045 5.88662 39.2395 3.81893 43.7409 3.81893C51.5595 3.81893 57.9204 10.1799 57.9204 17.9985C57.9204 24.0148 54.562 30.5948 47.9389 37.5557Z" fill="white"></path>
  </symbol>
  <symbol fill="none" xmlns="http://www.w3.org/2000/svg" viewBox="0 0 70 100" id="beauty">
    <path d="M67.4015 55.6436H64.7128V51.8243C64.7128 50.6085 63.7272 49.6228 62.5114 49.6228H44.5881C43.372 49.6228 42.3867 50.6085 42.3867 51.8243V55.6436H39.6977C38.4819 55.6436 37.4963 56.6292 37.4963 57.845V92.3508C37.4963 96.5687 40.9279 100 45.1458 100H61.954C66.1716 100 69.6032 96.5687 69.6032 92.3508V57.845C69.6029 56.6292 68.6172 55.6436 67.4015 55.6436ZM46.7895 54.026H60.31V55.6439H46.7895V54.026ZM65.2001 92.3508C65.2001 94.141 63.7439 95.5972 61.9537 95.5972H45.1455C43.3553 95.5972 41.8988 94.141 41.8988 92.3508V60.0464H65.1998L65.2001 92.3508Z" fill="#000F08"></path>
    <path d="M29.9052 60.8448H27.2165V28.43C27.2165 27.2142 26.2309 26.2285 25.0151 26.2285H24.7281V10.243C24.7281 10.1497 24.7216 7.9295 24.1448 5.67642C22.8806 0.737621 20.0097 0 18.4106 0C16.3997 0 14.2332 1.80956 11.1653 6.05096C9.26708 8.67533 7.74634 11.2569 7.68235 11.3655C7.48364 11.7036 7.37914 12.0884 7.37914 12.4806V26.2282H7.09237C5.87631 26.2282 4.89096 27.2139 4.89096 28.4297V60.8445H2.20141C0.985647 60.8445 0 61.8301 0 63.0459V92.3502C0 96.5681 3.43127 99.9994 7.64948 99.9994H24.4574C28.6753 99.9994 32.1069 96.5681 32.1069 92.3502V63.0459C32.1066 61.8304 31.121 60.8448 29.9052 60.8448ZM11.7817 13.0855C14.2922 8.90986 17.3269 5.01101 18.5356 4.41692C19.6064 4.66113 20.3182 8.00611 20.3255 10.243V26.2285H11.7817V13.0855ZM9.2932 30.6314H22.8137V60.8448H9.2932V30.6314ZM27.7038 92.3508C27.7038 94.141 26.2473 95.5972 24.4571 95.5972H7.64918C5.85899 95.5972 4.40254 94.141 4.40254 92.3508V65.2479H27.7035L27.7038 92.3508Z" fill="#000F08"></path>
  </symbol>
  <symbol fill="none" xmlns="http://www.w3.org/2000/svg" viewBox="0 0 471 54" id="brand-logo">
    <path d="M35.55 38L20.71 2.02H0.76V52H13.92V11.96H14.06L29.88 52H41.22L57.04 11.96H57.18V52H70.34V2.02H50.39L35.55 38ZM77.0518 27.01C77.0518 37.44 81.2518 53.4 108.132 53.4C135.012 53.4 139.212 37.44 139.212 27.01C139.212 16.58 135.012 0.619998 108.132 0.619998C81.2518 0.619998 77.0518 16.58 77.0518 27.01ZM91.4718 27.01C91.4718 19.24 95.8118 10.14 108.132 10.14C120.452 10.14 124.792 19.24 124.792 27.01C124.792 34.78 120.452 43.88 108.132 43.88C95.8118 43.88 91.4718 34.78 91.4718 27.01ZM159.535 11.54H173.395C183.755 11.54 187.675 17.28 187.675 26.52C187.675 37.09 183.615 42.48 174.655 42.48H159.535V11.54ZM145.955 52H178.295C193.975 52 201.675 42.06 201.675 27.01C201.675 11.96 194.255 2.02 177.105 2.02H145.955V52ZM251.601 36.88H251.461L225.211 2.02H209.461V52H222.621V17.14H222.761L249.991 52H264.761V2.02H251.601V36.88ZM274.266 52H287.846V2.02H274.266V52ZM310.951 23.51V2.02H297.371V52H310.951V37.16L318.861 30.37L335.871 52H354.211L329.501 22.11L352.461 2.02H334.191L310.951 23.51ZM371.86 23.51V2.02H358.28V52H371.86V37.16L379.77 30.37L396.78 52H415.12L390.41 22.11L413.37 2.02H395.1L371.86 23.51ZM434.868 52H448.448V34.57L470.568 2.02H454.608L441.658 23.79L428.708 2.02H412.748L434.868 34.57V52Z" fill="white"></path>
  </symbol>
  <symbol fill="none" xmlns="http://www.w3.org/2000/svg" viewBox="0 0 14 2" id="collapse-icon">
    <rect width="14" height="2" fill="#000F08"></rect>
  </symbol>
  <symbol fill="none" xmlns="http://www.w3.org/2000/svg" viewBox="0 0 46 100" id="denim">
    <path d="M41.9768 6.57685V1.19523C41.9768 0.535222 41.4416 0 40.7816 0H5.21813C4.55813 0 4.02291 0.535222 4.02291 1.19523V6.57804C3.67294 8.10722 0.791016 21.3345 0.791016 41.7017V98.8048C0.791016 99.4645 1.32624 100 1.98624 100H20.1262C20.7864 100 21.3214 99.4645 21.3214 98.8048C21.3214 98.3962 21.3446 64.4248 23.0002 42.4042C24.6556 64.4248 24.6786 98.3962 24.6786 98.8048C24.6786 99.4645 25.2138 100 25.8738 100H44.0142C44.6742 100 45.2094 99.4645 45.2094 98.8048V41.7014C45.2092 21.33 42.3256 8.10124 41.9768 6.57685ZM6.41336 2.39045H13.0861V5.51477H6.41336V2.39045ZM6.17981 7.90522H10.3978V11.0907C10.3978 11.2334 10.37 11.3927 10.168 11.5911C9.50134 12.2458 7.65735 12.6799 5.29965 12.7698C5.66132 10.4886 5.98331 8.843 6.17981 7.90522ZM18.9336 97.6096H3.18147V94.6954H18.9477C18.94 95.9231 18.9357 96.9115 18.9336 97.6096ZM21.8048 30.8528C19.5895 45.5472 19.0816 78.3387 18.9654 92.3047H7.8909L7.88851 92.0553C7.88229 91.3994 7.34826 90.8713 6.69352 90.8713H6.68204C6.0218 90.8778 5.49184 91.418 5.49805 92.0778L5.5002 92.3047H3.18147V41.7014C3.18147 30.3071 4.09103 21.1985 4.94012 15.1748C5.31734 15.1679 5.70339 15.1519 6.09208 15.1268C6.11049 16.4191 7.25384 16.4112 7.28491 16.4112C7.90309 16.4112 8.42684 15.935 8.47536 15.3085C8.48851 15.1371 8.50213 14.9733 8.51576 14.8141C9.85441 14.5351 11.0606 14.0654 11.8437 13.2962C12.4619 12.6888 12.7887 11.9262 12.7887 11.0907V7.90522H21.8052V30.8528H21.8048ZM21.8048 5.51477H15.4765V2.39045H21.8048V5.51477ZM40.7008 12.7703C38.3421 12.6802 36.4984 12.2463 35.8317 11.5911C35.6297 11.3927 35.602 11.2337 35.602 11.091V7.90522H39.8204C40.0167 8.843 40.3389 10.4888 40.7008 12.7703ZM32.9139 2.39045H39.5864V5.51477H32.9139V2.39045ZM24.1952 2.39045H30.5237V5.51477H24.1952V2.39045ZM24.1952 7.90522H26.197V17.4116C26.197 19.2525 25.7777 20.6014 24.9845 21.3121C24.7276 21.5425 24.4527 21.6876 24.1952 21.7806V7.90522ZM42.8187 97.6096H27.0664C27.064 96.9115 27.0599 95.9231 27.0518 94.6954H42.8187V97.6096ZM42.8187 92.3047H40.4998L40.5019 92.0778C40.5081 91.418 39.9782 90.8778 39.3179 90.8713H39.3067C38.6517 90.8713 38.1177 91.3994 38.1115 92.0553L38.1091 92.3047H27.0344C26.9182 78.3382 26.4102 45.5472 24.1952 30.8528V24.2483C24.8856 24.1249 25.7409 23.8252 26.5326 23.1343C27.8961 21.9441 28.5874 20.0191 28.5874 17.4118V7.90522H33.2115V11.0907C33.2115 11.926 33.5383 12.6888 34.1565 13.2962C34.9398 14.0661 36.1472 14.5359 37.4871 14.8146C37.5 14.9649 37.5127 15.1184 37.5251 15.279C37.5734 15.9056 38.0971 16.3818 38.7151 16.3818C39.0055 16.3818 39.895 16.2914 39.9072 15.1268C40.2961 15.1519 40.6826 15.1679 41.0601 15.1748C41.9092 21.1983 42.8185 30.3071 42.8185 41.7014V92.3047H42.8187Z" fill="#000F08"></path>
  </symbol>
</svg>